<?xml version="1.0" encoding="UTF-8" standalone="no"?>
<!DOCTYPE svg PUBLIC "-//W3C//DTD SVG 1.1//EN"
 "http://www.w3.org/Graphics/SVG/1.1/DTD/svg11.dtd">
<!-- Generated by graphviz version 2.43.0 (0)
 -->
<!-- Title: G Pages: 1 -->
<svg width="866pt" height="111pt"
 viewBox="0.00 0.00 866.30 111.38" xmlns="http://www.w3.org/2000/svg" xmlns:xlink="http://www.w3.org/1999/xlink">
<g id="graph0" class="graph" transform="scale(1 1) rotate(0) translate(4 107.38)">
<title>G</title><style>.edge>path:hover{stroke-width:8}</style>
<polygon fill="white" stroke="transparent" points="-4,4 -4,-107.38 862.3,-107.38 862.3,4 -4,4"/>
<!-- statanalysis_utils_md_constraints -->
<g id="node1" class="node">
<title>statanalysis_utils_md_constraints</title><style>.edge>path:hover{stroke-width:8}</style>
<polygon fill="#6b35a1" stroke="black" points="284.89,-18.43 284.89,-44.33 249.49,-62.64 199.43,-62.64 164.04,-44.33 164.04,-18.43 199.43,-0.12 249.49,-0.12 284.89,-18.43"/>
<text text-anchor="middle" x="224.46" y="-39.88" font-family="Helvetica,sans-Serif" font-size="10.00" fill="#ffffff">statanalysis.</text>
<text text-anchor="middle" x="224.46" y="-28.88" font-family="Helvetica,sans-Serif" font-size="10.00" fill="#ffffff">utils_md.</text>
<text text-anchor="middle" x="224.46" y="-17.88" font-family="Helvetica,sans-Serif" font-size="10.00" fill="#ffffff">constraints</text>
</g>
<!-- statanalysis_utils_md -->
<g id="node3" class="node">
<title>statanalysis_utils_md</title><style>.edge>path:hover{stroke-width:8}</style>
<polygon fill="#6605c7" stroke="black" points="441.82,-21.89 441.82,-40.87 406.42,-54.3 356.36,-54.3 320.96,-40.87 320.96,-21.89 356.36,-8.46 406.42,-8.46 441.82,-21.89"/>
<text text-anchor="middle" x="381.39" y="-34.38" font-family="Helvetica,sans-Serif" font-size="10.00" fill="#ffffff">statanalysis.</text>
<text text-anchor="middle" x="381.39" y="-23.38" font-family="Helvetica,sans-Serif" font-size="10.00" fill="#ffffff">utils_md</text>
</g>
<!-- statanalysis_utils_md_constraints&#45;&gt;statanalysis_utils_md -->
<g id="edge4" class="edge">
<title>statanalysis_utils_md_constraints&#45;&gt;statanalysis_utils_md</title><style>.edge>path:hover{stroke-width:8}</style>
<path fill="none" stroke="black" d="M284.92,-31.38C293.38,-31.38 302.15,-31.38 310.79,-31.38"/>
<polygon fill="#6b35a1" stroke="black" points="310.84,-34.88 320.84,-31.38 310.84,-27.88 310.84,-34.88"/>
</g>
<!-- statanalysis_conf_inte_md_confidence_interval -->
<g id="node2" class="node">
<title>statanalysis_conf_inte_md_confidence_interval</title><style>.edge>path:hover{stroke-width:8}</style>
<polygon fill="#7038a8" stroke="black" points="686.52,-18.43 686.52,-44.33 636.18,-62.64 564.98,-62.64 514.63,-44.33 514.63,-18.43 564.98,-0.12 636.18,-0.12 686.52,-18.43"/>
<text text-anchor="middle" x="600.58" y="-39.88" font-family="Helvetica,sans-Serif" font-size="10.00" fill="#ffffff">statanalysis.</text>
<text text-anchor="middle" x="600.58" y="-28.88" font-family="Helvetica,sans-Serif" font-size="10.00" fill="#ffffff">conf_inte_md.</text>
<text text-anchor="middle" x="600.58" y="-17.88" font-family="Helvetica,sans-Serif" font-size="10.00" fill="#ffffff">confidence_interval</text>
</g>
<!-- __main__ -->
<g id="node4" class="node">
<title>__main__</title><style>.edge>path:hover{stroke-width:8}</style>
<polygon fill="#633535" stroke="black" points="858.3,-49.38 855.3,-53.38 834.3,-53.38 831.3,-49.38 796.3,-49.38 796.3,-13.38 858.3,-13.38 858.3,-49.38"/>
<text text-anchor="middle" x="827.3" y="-28.88" font-family="Helvetica,sans-Serif" font-size="10.00" fill="#ffffff">__main__</text>
</g>
<!-- statanalysis_conf_inte_md_confidence_interval&#45;&gt;__main__ -->
<g id="edge2" class="edge">
<title>statanalysis_conf_inte_md_confidence_interval&#45;&gt;__main__</title><style>.edge>path:hover{stroke-width:8}</style>
<path fill="none" stroke="black" d="M686.53,-31.38C720.7,-31.38 758.47,-31.38 786.12,-31.38"/>
<polygon fill="#7038a8" stroke="black" points="786.19,-34.88 796.19,-31.38 786.19,-27.88 786.19,-34.88"/>
</g>
<!-- statanalysis_utils_md&#45;&gt;statanalysis_conf_inte_md_confidence_interval -->
<g id="edge3" class="edge">
<title>statanalysis_utils_md&#45;&gt;statanalysis_conf_inte_md_confidence_interval</title><style>.edge>path:hover{stroke-width:8}</style>
<path fill="none" stroke="black" d="M442.03,-31.38C461.32,-31.38 483.23,-31.38 504.44,-31.38"/>
<polygon fill="#6605c7" stroke="black" points="504.45,-34.88 514.45,-31.38 504.45,-27.88 504.45,-34.88"/>
</g>
<!-- numpy -->
<g id="node5" class="node">
<title>numpy</title><style>.edge>path:hover{stroke-width:8}</style>
<polygon fill="#7ad024" stroke="black" points="54,-49.38 51,-53.38 30,-53.38 27,-49.38 0,-49.38 0,-13.38 54,-13.38 54,-49.38"/>
<text text-anchor="middle" x="27" y="-28.88" font-family="Helvetica,sans-Serif" font-size="10.00" fill="#000000">numpy</text>
</g>
<!-- numpy&#45;&gt;statanalysis_utils_md_constraints -->
<g id="edge1" class="edge">
<title>numpy&#45;&gt;statanalysis_utils_md_constraints</title><style>.edge>path:hover{stroke-width:8}</style>
<path fill="none" stroke="black" d="M54.36,-31.38C79.78,-31.38 119.36,-31.38 153.84,-31.38"/>
<polygon fill="#7ad024" stroke="black" points="153.88,-34.88 163.88,-31.38 153.88,-27.88 153.88,-34.88"/>
</g>
<!-- scipy -->
<g id="node6" class="node">
<title>scipy</title><style>.edge>path:hover{stroke-width:8}</style>
<polygon fill="#0bdfdf" stroke="black" points="54,-103.38 51,-107.38 30,-107.38 27,-103.38 0,-103.38 0,-67.38 54,-67.38 54,-103.38"/>
<text text-anchor="middle" x="27" y="-82.88" font-family="Helvetica,sans-Serif" font-size="10.00" fill="#000000">scipy</text>
</g>
</g>
</svg>
