<?xml version="1.0" encoding="UTF-8" standalone="no"?>
<!DOCTYPE svg PUBLIC "-//W3C//DTD SVG 1.1//EN"
 "http://www.w3.org/Graphics/SVG/1.1/DTD/svg11.dtd">
<!-- Generated by graphviz version 2.43.0 (0)
 -->
<!-- Title: G Pages: 1 -->
<svg width="824pt" height="240pt"
 viewBox="0.00 0.00 823.96 240.10" xmlns="http://www.w3.org/2000/svg" xmlns:xlink="http://www.w3.org/1999/xlink">
<g id="graph0" class="graph" transform="scale(1 1) rotate(0) translate(4 236.1)">
<title>G</title><style>.edge>path:hover{stroke-width:8}</style>
<polygon fill="white" stroke="transparent" points="-4,4 -4,-236.1 819.96,-236.1 819.96,4 -4,4"/>
<!-- statanalysis_conf_inte_md -->
<g id="node1" class="node">
<title>statanalysis_conf_inte_md</title><style>.edge>path:hover{stroke-width:8}</style>
<ellipse fill="#2f2fbc" stroke="black" cx="460.41" cy="-182.83" rx="58.88" ry="21.43"/>
<text text-anchor="middle" x="460.41" y="-185.83" font-family="Helvetica,sans-Serif" font-size="10.00" fill="#ffffff">statanalysis.</text>
<text text-anchor="middle" x="460.41" y="-174.83" font-family="Helvetica,sans-Serif" font-size="10.00" fill="#ffffff">conf_inte_md</text>
</g>
<!-- statanalysis_mdl_esti_md -->
<g id="node4" class="node">
<title>statanalysis_mdl_esti_md</title><style>.edge>path:hover{stroke-width:8}</style>
<ellipse fill="#2e2e8a" stroke="black" cx="759.39" cy="-35.83" rx="56.64" ry="21.43"/>
<text text-anchor="middle" x="759.39" y="-38.83" font-family="Helvetica,sans-Serif" font-size="10.00" fill="#ffffff">statanalysis.</text>
<text text-anchor="middle" x="759.39" y="-27.83" font-family="Helvetica,sans-Serif" font-size="10.00" fill="#ffffff">mdl_esti_md</text>
</g>
<!-- statanalysis_conf_inte_md&#45;&gt;statanalysis_mdl_esti_md -->
<g id="edge9" class="edge">
<title>statanalysis_conf_inte_md&#45;&gt;statanalysis_mdl_esti_md</title><style>.edge>path:hover{stroke-width:8}</style>
<path fill="none" stroke="black" d="M513.14,-192.29C542.59,-195.39 579.55,-195.34 609.96,-182.83"/>
</g>
<!-- statanalysis_hyp_testi_md -->
<g id="node2" class="node">
<title>statanalysis_hyp_testi_md</title><style>.edge>path:hover{stroke-width:8}</style>
<ellipse fill="#2b2bac" stroke="black" cx="460.41" cy="-84.83" rx="58.88" ry="21.43"/>
<text text-anchor="middle" x="460.41" y="-87.83" font-family="Helvetica,sans-Serif" font-size="10.00" fill="#ffffff">statanalysis.</text>
<text text-anchor="middle" x="460.41" y="-76.83" font-family="Helvetica,sans-Serif" font-size="10.00" fill="#ffffff">hyp_testi_md</text>
</g>
<!-- statanalysis_hyp_vali_md -->
<g id="node3" class="node">
<title>statanalysis_hyp_vali_md</title><style>.edge>path:hover{stroke-width:8}</style>
<ellipse fill="#2d2db4" stroke="black" cx="610.96" cy="-35.83" rx="55.72" ry="21.43"/>
<text text-anchor="middle" x="610.96" y="-38.83" font-family="Helvetica,sans-Serif" font-size="10.00" fill="#ffffff">statanalysis.</text>
<text text-anchor="middle" x="610.96" y="-27.83" font-family="Helvetica,sans-Serif" font-size="10.00" fill="#ffffff">hyp_vali_md</text>
</g>
<!-- statanalysis_hyp_testi_md&#45;&gt;statanalysis_hyp_vali_md -->
<g id="edge10" class="edge">
<title>statanalysis_hyp_testi_md&#45;&gt;statanalysis_hyp_vali_md</title><style>.edge>path:hover{stroke-width:8}</style>
<path fill="none" stroke="black" d="M504.38,-70.66C521.3,-65.08 540.87,-58.62 558.53,-52.79"/>
<polygon fill="#2b2bac" stroke="black" points="559.72,-56.09 568.12,-49.63 557.52,-49.44 559.72,-56.09"/>
</g>
<!-- statanalysis_hyp_vali_md&#45;&gt;statanalysis_mdl_esti_md -->
<g id="edge11" class="edge">
<title>statanalysis_hyp_vali_md&#45;&gt;statanalysis_mdl_esti_md</title><style>.edge>path:hover{stroke-width:8}</style>
<path fill="none" stroke="black" d="M666.91,-35.83C675.31,-35.83 684.05,-35.83 692.65,-35.83"/>
<polygon fill="#2d2db4" stroke="black" points="692.66,-39.33 702.66,-35.83 692.66,-32.33 692.66,-39.33"/>
</g>
<!-- statanalysis_utils_md -->
<g id="node5" class="node">
<title>statanalysis_utils_md</title><style>.edge>path:hover{stroke-width:8}</style>
<ellipse fill="#0a0acc" stroke="black" cx="309.86" cy="-133.83" rx="55.72" ry="21.43"/>
<text text-anchor="middle" x="309.86" y="-136.83" font-family="Helvetica,sans-Serif" font-size="10.00" fill="#ffffff">statanalysis.</text>
<text text-anchor="middle" x="309.86" y="-125.83" font-family="Helvetica,sans-Serif" font-size="10.00" fill="#ffffff">utils_md</text>
</g>
<!-- statanalysis_utils_md&#45;&gt;statanalysis_conf_inte_md -->
<g id="edge12" class="edge">
<title>statanalysis_utils_md&#45;&gt;statanalysis_conf_inte_md</title><style>.edge>path:hover{stroke-width:8}</style>
<path fill="none" stroke="black" d="M352.64,-147.61C369.44,-153.15 389,-159.6 406.75,-165.46"/>
<polygon fill="#0a0acc" stroke="black" points="405.81,-168.83 416.4,-168.64 408,-162.19 405.81,-168.83"/>
</g>
<!-- statanalysis_utils_md&#45;&gt;statanalysis_hyp_testi_md -->
<g id="edge13" class="edge">
<title>statanalysis_utils_md&#45;&gt;statanalysis_hyp_testi_md</title><style>.edge>path:hover{stroke-width:8}</style>
<path fill="none" stroke="black" d="M352.64,-120.05C369.44,-114.51 389,-108.06 406.75,-102.2"/>
<polygon fill="#0a0acc" stroke="black" points="408,-105.47 416.4,-99.02 405.81,-98.83 408,-105.47"/>
</g>
<!-- statanalysis_utils_md&#45;&gt;statanalysis_hyp_vali_md -->
<g id="edge14" class="edge">
<title>statanalysis_utils_md&#45;&gt;statanalysis_hyp_vali_md</title><style>.edge>path:hover{stroke-width:8}</style>
<path fill="none" stroke="black" d="M365.62,-135.93C393.71,-136.48 428.44,-136.33 459.41,-133.83"/>
<path fill="none" stroke="black" d="M461.41,-133.83C511.8,-129.76 558.46,-90.86 585.58,-63.31"/>
<polygon fill="#0a0acc" stroke="black" points="588.3,-65.53 592.69,-55.88 583.25,-60.69 588.3,-65.53"/>
</g>
<!-- statanalysis_utils_md&#45;&gt;statanalysis_mdl_esti_md -->
<g id="edge15" class="edge">
<title>statanalysis_utils_md&#45;&gt;statanalysis_mdl_esti_md</title><style>.edge>path:hover{stroke-width:8}</style>
<path fill="none" stroke="black" d="M461.41,-133.83C530.71,-128.23 545.67,-209.28 609.96,-182.83"/>
<path fill="none" stroke="black" d="M611.96,-182.83C669.39,-159.2 715.88,-100.74 740.12,-65.07"/>
<polygon fill="#0a0acc" stroke="black" points="743.17,-66.79 745.79,-56.52 737.34,-62.92 743.17,-66.79"/>
</g>
<!-- numpy -->
<g id="node6" class="node">
<title>numpy</title><style>.edge>path:hover{stroke-width:8}</style>
<polygon fill="#e50505" stroke="black" points="54,-176.83 51,-180.83 30,-180.83 27,-176.83 0,-176.83 0,-140.83 54,-140.83 54,-176.83"/>
<text text-anchor="middle" x="27" y="-156.33" font-family="Helvetica,sans-Serif" font-size="10.00" fill="#ffffff">numpy</text>
</g>
<!-- numpy&#45;&gt;statanalysis_conf_inte_md -->
<g id="edge2" class="edge">
<title>numpy&#45;&gt;statanalysis_conf_inte_md</title><style>.edge>path:hover{stroke-width:8}</style>
<path fill="none" stroke="black" d="M218,-158.83C234.01,-156.7 237.95,-161.97 254,-163.83 300.15,-169.17 352.26,-173.97 392.46,-177.42"/>
<polygon fill="#e50505" stroke="black" points="392.41,-180.92 402.67,-178.28 393,-173.95 392.41,-180.92"/>
</g>
<!-- numpy&#45;&gt;statanalysis_hyp_testi_md -->
<g id="edge3" class="edge">
<title>numpy&#45;&gt;statanalysis_hyp_testi_md</title><style>.edge>path:hover{stroke-width:8}</style>
<path fill="none" stroke="black" d="M310.86,-84.83C337.94,-72.79 370.63,-71.56 398.44,-73.86"/>
<polygon fill="#e50505" stroke="black" points="398.16,-77.34 408.45,-74.85 398.85,-70.38 398.16,-77.34"/>
</g>
<!-- numpy&#45;&gt;statanalysis_hyp_vali_md -->
<g id="edge4" class="edge">
<title>numpy&#45;&gt;statanalysis_hyp_vali_md</title><style>.edge>path:hover{stroke-width:8}</style>
<path fill="none" stroke="black" d="M461.41,-35.83C489.08,-29.12 520.51,-28.19 547.31,-29.32"/>
<polygon fill="#e50505" stroke="black" points="547.17,-32.81 557.34,-29.84 547.54,-25.82 547.17,-32.81"/>
</g>
<!-- numpy&#45;&gt;statanalysis_mdl_esti_md -->
<g id="edge5" class="edge">
<title>numpy&#45;&gt;statanalysis_mdl_esti_md</title><style>.edge>path:hover{stroke-width:8}</style>
<path fill="none" stroke="black" d="M54.12,-156.83C65.25,-156.49 78.34,-156.78 90,-158.83"/>
<path fill="none" stroke="black" d="M91,-158.83C146.16,-168.51 161.66,-167.41 217,-158.83"/>
<path fill="none" stroke="black" d="M218,-158.83C246.63,-153 230.96,-121.8 254,-103.83 274.35,-87.96 285.28,-95.31 308.86,-84.83"/>
<path fill="none" stroke="black" d="M310.86,-84.83C374.39,-56.58 391.85,-52.22 459.41,-35.83"/>
<path fill="none" stroke="black" d="M461.41,-35.83C503.9,-25.52 511.9,-12.58 555.1,-5.83 604.16,1.83 617.79,2 666.83,-5.83 681.31,-8.14 696.62,-12.39 710.49,-16.98"/>
<polygon fill="#e50505" stroke="black" points="709.71,-20.41 720.3,-20.36 711.99,-13.79 709.71,-20.41"/>
</g>
<!-- numpy&#45;&gt;statanalysis_utils_md -->
<g id="edge6" class="edge">
<title>numpy&#45;&gt;statanalysis_utils_md</title><style>.edge>path:hover{stroke-width:8}</style>
<path fill="none" stroke="black" d="M218,-158.83C230.93,-157.11 244.61,-154.04 257.33,-150.62"/>
<polygon fill="#e50505" stroke="black" points="258.6,-153.9 267.28,-147.83 256.71,-147.16 258.6,-153.9"/>
</g>
<!-- scipy -->
<g id="node7" class="node">
<title>scipy</title><style>.edge>path:hover{stroke-width:8}</style>
<polygon fill="#17d317" stroke="black" points="181,-222.83 178,-226.83 157,-226.83 154,-222.83 127,-222.83 127,-186.83 181,-186.83 181,-222.83"/>
<text text-anchor="middle" x="154" y="-202.33" font-family="Helvetica,sans-Serif" font-size="10.00" fill="#000000">scipy</text>
</g>
<!-- numpy&#45;&gt;scipy -->
<g id="edge1" class="edge">
<title>numpy&#45;&gt;scipy</title><style>.edge>path:hover{stroke-width:8}</style>
<path fill="none" stroke="black" d="M91,-158.83C105.52,-161.38 119,-170.22 129.66,-179.49"/>
<polygon fill="#e50505" stroke="black" points="127.54,-182.29 137.24,-186.56 132.31,-177.18 127.54,-182.29"/>
</g>
<!-- scipy&#45;&gt;statanalysis_mdl_esti_md -->
<g id="edge7" class="edge">
<title>scipy&#45;&gt;statanalysis_mdl_esti_md</title><style>.edge>path:hover{stroke-width:8}</style>
<path fill="none" stroke="black" d="M218,-231.83C393.4,-224.31 447.6,-249.62 609.96,-182.83"/>
</g>
<!-- scipy&#45;&gt;statanalysis_utils_md -->
<g id="edge8" class="edge">
<title>scipy&#45;&gt;statanalysis_utils_md</title><style>.edge>path:hover{stroke-width:8}</style>
<path fill="none" stroke="black" d="M181.11,-222.33C191.8,-227.83 204.57,-232.36 217,-231.83"/>
<path fill="none" stroke="black" d="M218,-231.83C236.91,-231.02 268.61,-191.45 289.13,-162.85"/>
<polygon fill="#17d317" stroke="black" points="292.2,-164.56 295.11,-154.38 286.48,-160.53 292.2,-164.56"/>
</g>
</g>
</svg>
