<?xml version="1.0" encoding="UTF-8" standalone="no"?>
<!DOCTYPE svg PUBLIC "-//W3C//DTD SVG 1.1//EN"
 "http://www.w3.org/Graphics/SVG/1.1/DTD/svg11.dtd">
<!-- Generated by graphviz version 2.43.0 (0)
 -->
<!-- Title: G Pages: 1 -->
<svg width="824pt" height="242pt"
 viewBox="0.00 0.00 823.96 242.42" xmlns="http://www.w3.org/2000/svg" xmlns:xlink="http://www.w3.org/1999/xlink">
<g id="graph0" class="graph" transform="scale(1 1) rotate(0) translate(4 238.42)">
<title>G</title><style>.edge>path:hover{stroke-width:8}</style>
<polygon fill="white" stroke="transparent" points="-4,4 -4,-238.42 819.96,-238.42 819.96,4 -4,4"/>
<!-- statanalysis_conf_inte_md -->
<g id="node1" class="node">
<title>statanalysis_conf_inte_md</title><style>.edge>path:hover{stroke-width:8}</style>
<ellipse fill="#2d2db4" stroke="black" cx="608.14" cy="-81.89" rx="58.88" ry="21.43"/>
<text text-anchor="middle" x="608.14" y="-84.89" font-family="Helvetica,sans-Serif" font-size="10.00" fill="#ffffff">statanalysis.</text>
<text text-anchor="middle" x="608.14" y="-73.89" font-family="Helvetica,sans-Serif" font-size="10.00" fill="#ffffff">conf_inte_md</text>
</g>
<!-- statanalysis_mdl_esti_md -->
<g id="node4" class="node">
<title>statanalysis_mdl_esti_md</title><style>.edge>path:hover{stroke-width:8}</style>
<ellipse fill="#2e2e8a" stroke="black" cx="759.39" cy="-81.89" rx="56.64" ry="21.43"/>
<text text-anchor="middle" x="759.39" y="-84.89" font-family="Helvetica,sans-Serif" font-size="10.00" fill="#ffffff">statanalysis.</text>
<text text-anchor="middle" x="759.39" y="-73.89" font-family="Helvetica,sans-Serif" font-size="10.00" fill="#ffffff">mdl_esti_md</text>
</g>
<!-- statanalysis_conf_inte_md&#45;&gt;statanalysis_mdl_esti_md -->
<g id="edge10" class="edge">
<title>statanalysis_conf_inte_md&#45;&gt;statanalysis_mdl_esti_md</title><style>.edge>path:hover{stroke-width:8}</style>
<path fill="none" stroke="black" d="M666.84,-81.89C675.33,-81.89 684.13,-81.89 692.77,-81.89"/>
<polygon fill="#2d2db4" stroke="black" points="692.8,-85.39 702.8,-81.89 692.8,-78.39 692.8,-85.39"/>
</g>
<!-- statanalysis_hyp_testi_md -->
<g id="node2" class="node">
<title>statanalysis_hyp_testi_md</title><style>.edge>path:hover{stroke-width:8}</style>
<ellipse fill="#2828a3" stroke="black" cx="608.14" cy="-141.89" rx="58.88" ry="21.43"/>
<text text-anchor="middle" x="608.14" y="-144.89" font-family="Helvetica,sans-Serif" font-size="10.00" fill="#ffffff">statanalysis.</text>
<text text-anchor="middle" x="608.14" y="-133.89" font-family="Helvetica,sans-Serif" font-size="10.00" fill="#ffffff">hyp_testi_md</text>
</g>
<!-- statanalysis_hyp_vali_md -->
<g id="node3" class="node">
<title>statanalysis_hyp_vali_md</title><style>.edge>path:hover{stroke-width:8}</style>
<ellipse fill="#1414b8" stroke="black" cx="457.58" cy="-43.89" rx="55.72" ry="21.43"/>
<text text-anchor="middle" x="457.58" y="-46.89" font-family="Helvetica,sans-Serif" font-size="10.00" fill="#ffffff">statanalysis.</text>
<text text-anchor="middle" x="457.58" y="-35.89" font-family="Helvetica,sans-Serif" font-size="10.00" fill="#ffffff">hyp_vali_md</text>
</g>
<!-- statanalysis_hyp_vali_md&#45;&gt;statanalysis_conf_inte_md -->
<g id="edge12" class="edge">
<title>statanalysis_hyp_vali_md&#45;&gt;statanalysis_conf_inte_md</title><style>.edge>path:hover{stroke-width:8}</style>
<path fill="none" stroke="black" d="M504.37,-55.6C518.77,-59.28 534.86,-63.4 549.96,-67.26"/>
<polygon fill="#1414b8" stroke="black" points="549.15,-70.67 559.71,-69.75 550.89,-63.89 549.15,-70.67"/>
</g>
<!-- statanalysis_hyp_vali_md&#45;&gt;statanalysis_hyp_testi_md -->
<g id="edge13" class="edge">
<title>statanalysis_hyp_vali_md&#45;&gt;statanalysis_hyp_testi_md</title><style>.edge>path:hover{stroke-width:8}</style>
<path fill="none" stroke="black" d="M490.11,-69.47C507.19,-82.82 528.94,-99 549.45,-111.89 553.87,-114.67 558.59,-117.43 563.34,-120.08"/>
<polygon fill="#1414b8" stroke="black" points="492.14,-66.62 482.12,-63.18 487.81,-72.12 492.14,-66.62"/>
<polygon fill="#1414b8" stroke="black" points="562,-123.33 572.45,-125.02 565.33,-117.18 562,-123.33"/>
</g>
<!-- statanalysis_hyp_vali_md&#45;&gt;statanalysis_mdl_esti_md -->
<g id="edge14" class="edge">
<title>statanalysis_hyp_vali_md&#45;&gt;statanalysis_mdl_esti_md</title><style>.edge>path:hover{stroke-width:8}</style>
<path fill="none" stroke="black" d="M513.4,-41.86C555.65,-41.3 615.37,-42.66 666.83,-51.89 681.14,-54.45 696.28,-58.74 710.05,-63.27"/>
<polygon fill="#1414b8" stroke="black" points="709.2,-66.68 719.8,-66.6 711.46,-60.06 709.2,-66.68"/>
</g>
<!-- statanalysis_utils_md -->
<g id="node5" class="node">
<title>statanalysis_utils_md</title><style>.edge>path:hover{stroke-width:8}</style>
<ellipse fill="#0a0acc" stroke="black" cx="309.86" cy="-130.89" rx="55.72" ry="21.43"/>
<text text-anchor="middle" x="309.86" y="-133.89" font-family="Helvetica,sans-Serif" font-size="10.00" fill="#ffffff">statanalysis.</text>
<text text-anchor="middle" x="309.86" y="-122.89" font-family="Helvetica,sans-Serif" font-size="10.00" fill="#ffffff">utils_md</text>
</g>
<!-- statanalysis_utils_md&#45;&gt;statanalysis_conf_inte_md -->
<g id="edge15" class="edge">
<title>statanalysis_utils_md&#45;&gt;statanalysis_conf_inte_md</title><style>.edge>path:hover{stroke-width:8}</style>
<path fill="none" stroke="black" d="M364.46,-135.46C391.98,-137.67 426.06,-140.21 456.58,-141.89"/>
<path fill="none" stroke="black" d="M458.58,-141.89C479.81,-143.05 528.64,-121.44 564.55,-103.83"/>
<polygon fill="#0a0acc" stroke="black" points="566.43,-106.8 573.84,-99.23 563.32,-100.53 566.43,-106.8"/>
</g>
<!-- statanalysis_utils_md&#45;&gt;statanalysis_hyp_testi_md -->
<g id="edge16" class="edge">
<title>statanalysis_utils_md&#45;&gt;statanalysis_hyp_testi_md</title><style>.edge>path:hover{stroke-width:8}</style>
<path fill="none" stroke="black" d="M458.58,-141.89C484.84,-143.33 513.74,-143.62 539.02,-143.45"/>
<polygon fill="#0a0acc" stroke="black" points="539.28,-146.95 549.25,-143.36 539.21,-139.95 539.28,-146.95"/>
</g>
<!-- statanalysis_utils_md&#45;&gt;statanalysis_hyp_vali_md -->
<g id="edge17" class="edge">
<title>statanalysis_utils_md&#45;&gt;statanalysis_hyp_vali_md</title><style>.edge>path:hover{stroke-width:8}</style>
<path fill="none" stroke="black" d="M340.7,-113.07C363.1,-99.7 393.94,-81.28 418.18,-66.81"/>
<polygon fill="#0a0acc" stroke="black" points="419.99,-69.81 426.78,-61.68 416.4,-63.8 419.99,-69.81"/>
</g>
<!-- statanalysis_utils_md&#45;&gt;statanalysis_mdl_esti_md -->
<g id="edge18" class="edge">
<title>statanalysis_utils_md&#45;&gt;statanalysis_mdl_esti_md</title><style>.edge>path:hover{stroke-width:8}</style>
<path fill="none" stroke="black" d="M458.58,-141.89C485.16,-143.35 489.59,-154.08 513.45,-165.89 556.13,-187.01 560.91,-229.32 607.14,-217.89"/>
<path fill="none" stroke="black" d="M609.14,-217.89C667.96,-203.33 715.39,-146.43 740,-111"/>
<polygon fill="#0a0acc" stroke="black" points="743.05,-112.74 745.76,-102.5 737.25,-108.82 743.05,-112.74"/>
</g>
<!-- numpy -->
<g id="node6" class="node">
<title>numpy</title><style>.edge>path:hover{stroke-width:8}</style>
<polygon fill="#e50505" stroke="black" points="54,-189.89 51,-193.89 30,-193.89 27,-189.89 0,-189.89 0,-153.89 54,-153.89 54,-189.89"/>
<text text-anchor="middle" x="27" y="-169.39" font-family="Helvetica,sans-Serif" font-size="10.00" fill="#ffffff">numpy</text>
</g>
<!-- numpy&#45;&gt;statanalysis_conf_inte_md -->
<g id="edge2" class="edge">
<title>numpy&#45;&gt;statanalysis_conf_inte_md</title><style>.edge>path:hover{stroke-width:8}</style>
<path fill="none" stroke="black" d="M54.25,-172.22C65.29,-172.28 78.27,-172.23 90,-171.89"/>
<path fill="none" stroke="black" d="M91,-171.89C110.99,-171.31 108.57,-152.66 127,-144.89 164.3,-129.16 177.18,-138.17 217,-130.89"/>
<path fill="none" stroke="black" d="M218,-130.89C252.74,-120.79 225.9,-80.67 254,-57.89 273.55,-42.04 286.31,-55.06 308.86,-43.89"/>
<path fill="none" stroke="black" d="M310.86,-43.89C392.42,-3.48 426.87,14.22 513.45,-13.89 538.48,-22.01 562.41,-39.62 579.83,-54.88"/>
<polygon fill="#e50505" stroke="black" points="577.58,-57.57 587.35,-61.68 582.28,-52.38 577.58,-57.57"/>
</g>
<!-- numpy&#45;&gt;statanalysis_hyp_testi_md -->
<g id="edge3" class="edge">
<title>numpy&#45;&gt;statanalysis_hyp_testi_md</title><style>.edge>path:hover{stroke-width:8}</style>
<path fill="none" stroke="black" d="M91,-171.89C111,-171.89 108.22,-192.02 127,-198.89 264.8,-249.27 310.98,-235.98 456.58,-217.89"/>
<path fill="none" stroke="black" d="M458.58,-217.89C501.17,-210.69 544.53,-186.1 573.33,-166.82"/>
<polygon fill="#e50505" stroke="black" points="575.5,-169.57 581.78,-161.03 571.55,-163.79 575.5,-169.57"/>
</g>
<!-- numpy&#45;&gt;statanalysis_hyp_vali_md -->
<g id="edge4" class="edge">
<title>numpy&#45;&gt;statanalysis_hyp_vali_md</title><style>.edge>path:hover{stroke-width:8}</style>
<path fill="none" stroke="black" d="M310.86,-43.89C337.61,-30.63 370.67,-29.6 398.53,-32.34"/>
<polygon fill="#e50505" stroke="black" points="398.2,-35.82 408.54,-33.5 399.01,-28.87 398.2,-35.82"/>
</g>
<!-- numpy&#45;&gt;statanalysis_mdl_esti_md -->
<g id="edge5" class="edge">
<title>numpy&#45;&gt;statanalysis_mdl_esti_md</title><style>.edge>path:hover{stroke-width:8}</style>
<path fill="none" stroke="black" d="M458.58,-217.89C523.68,-206.88 543.25,-234.55 607.14,-217.89"/>
</g>
<!-- numpy&#45;&gt;statanalysis_utils_md -->
<g id="edge6" class="edge">
<title>numpy&#45;&gt;statanalysis_utils_md</title><style>.edge>path:hover{stroke-width:8}</style>
<path fill="none" stroke="black" d="M218,-130.89C226.36,-129.36 235.24,-128.47 244.03,-128.03"/>
<polygon fill="#e50505" stroke="black" points="244.4,-131.52 254.28,-127.7 244.17,-124.52 244.4,-131.52"/>
</g>
<!-- scipy -->
<g id="node7" class="node">
<title>scipy</title><style>.edge>path:hover{stroke-width:8}</style>
<polygon fill="#0bdf0b" stroke="black" points="181,-189.89 178,-193.89 157,-193.89 154,-189.89 127,-189.89 127,-153.89 181,-153.89 181,-189.89"/>
<text text-anchor="middle" x="154" y="-169.39" font-family="Helvetica,sans-Serif" font-size="10.00" fill="#000000">scipy</text>
</g>
<!-- numpy&#45;&gt;scipy -->
<g id="edge1" class="edge">
<title>numpy&#45;&gt;scipy</title><style>.edge>path:hover{stroke-width:8}</style>
<path fill="none" stroke="black" d="M91,-171.89C99.25,-171.89 108.12,-171.89 116.49,-171.89"/>
<polygon fill="#e50505" stroke="black" points="116.75,-175.39 126.75,-171.89 116.75,-168.39 116.75,-175.39"/>
</g>
<!-- scipy&#45;&gt;statanalysis_hyp_vali_md -->
<g id="edge7" class="edge">
<title>scipy&#45;&gt;statanalysis_hyp_vali_md</title><style>.edge>path:hover{stroke-width:8}</style>
<path fill="none" stroke="black" d="M181.2,-173.72C192.35,-173.92 205.42,-173.38 217,-170.89"/>
<path fill="none" stroke="black" d="M218,-170.89C252.2,-163.52 226.91,-123.02 254,-100.89 275.88,-83.01 345.29,-65.92 396.79,-55.2"/>
<polygon fill="#0bdf0b" stroke="black" points="397.74,-58.58 406.84,-53.14 396.34,-51.72 397.74,-58.58"/>
</g>
<!-- scipy&#45;&gt;statanalysis_mdl_esti_md -->
<g id="edge8" class="edge">
<title>scipy&#45;&gt;statanalysis_mdl_esti_md</title><style>.edge>path:hover{stroke-width:8}</style>
<path fill="none" stroke="black" d="M218,-170.89C347.12,-142.86 382.43,-186.79 513.45,-203.89 555.19,-209.34 566.27,-228 607.14,-217.89"/>
</g>
<!-- scipy&#45;&gt;statanalysis_utils_md -->
<g id="edge9" class="edge">
<title>scipy&#45;&gt;statanalysis_utils_md</title><style>.edge>path:hover{stroke-width:8}</style>
<path fill="none" stroke="black" d="M218,-170.89C235.16,-167.19 253.05,-160.1 268.37,-152.91"/>
<polygon fill="#0bdf0b" stroke="black" points="270.09,-155.96 277.55,-148.44 267.03,-149.67 270.09,-155.96"/>
</g>
</g>
</svg>
