<?xml version="1.0" encoding="UTF-8" standalone="no"?>
<!DOCTYPE svg PUBLIC "-//W3C//DTD SVG 1.1//EN"
 "http://www.w3.org/Graphics/SVG/1.1/DTD/svg11.dtd">
<!-- Generated by graphviz version 2.43.0 (0)
 -->
<!-- Title: G Pages: 1 -->
<svg width="2171pt" height="836pt"
 viewBox="0.00 0.00 2170.61 836.49" xmlns="http://www.w3.org/2000/svg" xmlns:xlink="http://www.w3.org/1999/xlink">
<g id="graph0" class="graph" transform="scale(1 1) rotate(0) translate(4 832.49)">
<title>G</title><style>.edge>path:hover{stroke-width:8}</style>
<polygon fill="white" stroke="transparent" points="-4,4 -4,-832.49 2166.61,-832.49 2166.61,4 -4,4"/>
<!-- statanalysis_conf_inte_md -->
<g id="node1" class="node">
<title>statanalysis_conf_inte_md</title><style>.edge>path:hover{stroke-width:8}</style>
<ellipse fill="#3d3db8" stroke="black" cx="1713.49" cy="-230.76" rx="58.88" ry="21.43"/>
<text text-anchor="middle" x="1713.49" y="-233.76" font-family="Helvetica,sans-Serif" font-size="10.00" fill="#ffffff">statanalysis.</text>
<text text-anchor="middle" x="1713.49" y="-222.76" font-family="Helvetica,sans-Serif" font-size="10.00" fill="#ffffff">conf_inte_md</text>
</g>
<!-- statanalysis_mdl_esti_md_model_estimator -->
<g id="node13" class="node">
<title>statanalysis_mdl_esti_md_model_estimator</title><style>.edge>path:hover{stroke-width:8}</style>
<ellipse fill="#303091" stroke="black" cx="1929.33" cy="-97.76" rx="70.92" ry="28.98"/>
<text text-anchor="middle" x="1929.33" y="-106.26" font-family="Helvetica,sans-Serif" font-size="10.00" fill="#ffffff">statanalysis.</text>
<text text-anchor="middle" x="1929.33" y="-95.26" font-family="Helvetica,sans-Serif" font-size="10.00" fill="#ffffff">mdl_esti_md.</text>
<text text-anchor="middle" x="1929.33" y="-84.26" font-family="Helvetica,sans-Serif" font-size="10.00" fill="#ffffff">model_estimator</text>
</g>
<!-- statanalysis_conf_inte_md&#45;&gt;statanalysis_mdl_esti_md_model_estimator -->
<g id="edge17" class="edge">
<title>statanalysis_conf_inte_md&#45;&gt;statanalysis_mdl_esti_md_model_estimator</title><style>.edge>path:hover{stroke-width:8}</style>
<path fill="none" stroke="black" d="M1718.26,-209.53C1726.49,-170.98 1750.2,-92.19 1808.18,-78.76"/>
</g>
<!-- statanalysis_conf_inte_md_ci_estimators -->
<g id="node2" class="node">
<title>statanalysis_conf_inte_md_ci_estimators</title><style>.edge>path:hover{stroke-width:8}</style>
<ellipse fill="#3131c4" stroke="black" cx="1307.03" cy="-477.76" rx="60.62" ry="28.98"/>
<text text-anchor="middle" x="1307.03" y="-486.26" font-family="Helvetica,sans-Serif" font-size="10.00" fill="#ffffff">statanalysis.</text>
<text text-anchor="middle" x="1307.03" y="-475.26" font-family="Helvetica,sans-Serif" font-size="10.00" fill="#ffffff">conf_inte_md.</text>
<text text-anchor="middle" x="1307.03" y="-464.26" font-family="Helvetica,sans-Serif" font-size="10.00" fill="#ffffff">ci_estimators</text>
</g>
<!-- statanalysis_conf_inte_md_ci_estimators&#45;&gt;statanalysis_conf_inte_md -->
<g id="edge18" class="edge">
<title>statanalysis_conf_inte_md_ci_estimators&#45;&gt;statanalysis_conf_inte_md</title><style>.edge>path:hover{stroke-width:8}</style>
<path fill="none" stroke="black" d="M1346.13,-455.34C1357.25,-448.75 1369.42,-441.5 1380.57,-434.76 1503.09,-360.7 1532.66,-340.45 1654.8,-265.76 1660.99,-261.98 1667.55,-257.98 1673.95,-254.09"/>
<polygon fill="#3131c4" stroke="black" points="1675.79,-257.07 1682.53,-248.89 1672.16,-251.08 1675.79,-257.07"/>
</g>
<!-- statanalysis_conf_inte_md_confidence_interval -->
<g id="node3" class="node">
<title>statanalysis_conf_inte_md_confidence_interval</title><style>.edge>path:hover{stroke-width:8}</style>
<ellipse fill="#3535a1" stroke="black" cx="1517.69" cy="-230.76" rx="79.39" ry="28.98"/>
<text text-anchor="middle" x="1517.69" y="-239.26" font-family="Helvetica,sans-Serif" font-size="10.00" fill="#ffffff">statanalysis.</text>
<text text-anchor="middle" x="1517.69" y="-228.26" font-family="Helvetica,sans-Serif" font-size="10.00" fill="#ffffff">conf_inte_md.</text>
<text text-anchor="middle" x="1517.69" y="-217.26" font-family="Helvetica,sans-Serif" font-size="10.00" fill="#ffffff">confidence_interval</text>
</g>
<!-- statanalysis_conf_inte_md_ci_estimators&#45;&gt;statanalysis_conf_inte_md_confidence_interval -->
<g id="edge19" class="edge">
<title>statanalysis_conf_inte_md_ci_estimators&#45;&gt;statanalysis_conf_inte_md_confidence_interval</title><style>.edge>path:hover{stroke-width:8}</style>
<path fill="none" stroke="black" d="M1352.65,-458.19C1362.97,-451.94 1373.1,-444.15 1380.57,-434.76 1413.39,-393.51 1388.09,-366.11 1416.57,-321.76 1431.07,-299.18 1452.57,-278.62 1471.93,-262.79"/>
<polygon fill="#3131c4" stroke="black" points="1474.16,-265.49 1479.79,-256.52 1469.79,-260.02 1474.16,-265.49"/>
</g>
<!-- statanalysis_conf_inte_md_confidence_interval&#45;&gt;statanalysis_conf_inte_md -->
<g id="edge20" class="edge">
<title>statanalysis_conf_inte_md_confidence_interval&#45;&gt;statanalysis_conf_inte_md</title><style>.edge>path:hover{stroke-width:8}</style>
<path fill="none" stroke="black" d="M1596.96,-230.76C1612.66,-230.76 1629.05,-230.76 1644.37,-230.76"/>
<polygon fill="#3535a1" stroke="black" points="1644.79,-234.26 1654.79,-230.76 1644.79,-227.26 1644.79,-234.26"/>
</g>
<!-- statanalysis_hyp_testi_md -->
<g id="node4" class="node">
<title>statanalysis_hyp_testi_md</title><style>.edge>path:hover{stroke-width:8}</style>
<ellipse fill="#3d3db8" stroke="black" cx="1713.49" cy="-705.76" rx="58.88" ry="21.43"/>
<text text-anchor="middle" x="1713.49" y="-708.76" font-family="Helvetica,sans-Serif" font-size="10.00" fill="#ffffff">statanalysis.</text>
<text text-anchor="middle" x="1713.49" y="-697.76" font-family="Helvetica,sans-Serif" font-size="10.00" fill="#ffffff">hyp_testi_md</text>
</g>
<!-- statanalysis_hyp_vali_md_hypothesis_validator -->
<g id="node9" class="node">
<title>statanalysis_hyp_vali_md_hypothesis_validator</title><style>.edge>path:hover{stroke-width:8}</style>
<ellipse fill="#3838a8" stroke="black" cx="1929.33" cy="-553.76" rx="84.29" ry="28.98"/>
<text text-anchor="middle" x="1929.33" y="-562.26" font-family="Helvetica,sans-Serif" font-size="10.00" fill="#ffffff">statanalysis.</text>
<text text-anchor="middle" x="1929.33" y="-551.26" font-family="Helvetica,sans-Serif" font-size="10.00" fill="#ffffff">hyp_vali_md.</text>
<text text-anchor="middle" x="1929.33" y="-540.26" font-family="Helvetica,sans-Serif" font-size="10.00" fill="#ffffff">hypothesis_validator</text>
</g>
<!-- statanalysis_hyp_testi_md&#45;&gt;statanalysis_hyp_vali_md_hypothesis_validator -->
<g id="edge21" class="edge">
<title>statanalysis_hyp_testi_md&#45;&gt;statanalysis_hyp_vali_md_hypothesis_validator</title><style>.edge>path:hover{stroke-width:8}</style>
<path fill="none" stroke="black" d="M1728.59,-726.4C1749.26,-755.45 1787.55,-804.48 1808.18,-800.76"/>
</g>
<!-- statanalysis_hyp_testi_md_hp_estimators -->
<g id="node5" class="node">
<title>statanalysis_hyp_testi_md_hp_estimators</title><style>.edge>path:hover{stroke-width:8}</style>
<ellipse fill="#2b2bac" stroke="black" cx="1307.03" cy="-705.76" rx="60.62" ry="28.98"/>
<text text-anchor="middle" x="1307.03" y="-714.26" font-family="Helvetica,sans-Serif" font-size="10.00" fill="#ffffff">statanalysis.</text>
<text text-anchor="middle" x="1307.03" y="-703.26" font-family="Helvetica,sans-Serif" font-size="10.00" fill="#ffffff">hyp_testi_md.</text>
<text text-anchor="middle" x="1307.03" y="-692.26" font-family="Helvetica,sans-Serif" font-size="10.00" fill="#ffffff">hp_estimators</text>
</g>
<!-- statanalysis_hyp_testi_md_hp_estimators&#45;&gt;statanalysis_hyp_testi_md -->
<g id="edge22" class="edge">
<title>statanalysis_hyp_testi_md_hp_estimators&#45;&gt;statanalysis_hyp_testi_md</title><style>.edge>path:hover{stroke-width:8}</style>
<path fill="none" stroke="black" d="M1368.15,-705.76C1442.07,-705.76 1567.22,-705.76 1644.55,-705.76"/>
<polygon fill="#2b2bac" stroke="black" points="1644.67,-709.26 1654.67,-705.76 1644.67,-702.26 1644.67,-709.26"/>
</g>
<!-- statanalysis_hyp_testi_md_hypothesis_testing -->
<g id="node6" class="node">
<title>statanalysis_hyp_testi_md_hypothesis_testing</title><style>.edge>path:hover{stroke-width:8}</style>
<ellipse fill="#3535a1" stroke="black" cx="1517.69" cy="-648.76" rx="77.15" ry="28.98"/>
<text text-anchor="middle" x="1517.69" y="-657.26" font-family="Helvetica,sans-Serif" font-size="10.00" fill="#ffffff">statanalysis.</text>
<text text-anchor="middle" x="1517.69" y="-646.26" font-family="Helvetica,sans-Serif" font-size="10.00" fill="#ffffff">hyp_testi_md.</text>
<text text-anchor="middle" x="1517.69" y="-635.26" font-family="Helvetica,sans-Serif" font-size="10.00" fill="#ffffff">hypothesis_testing</text>
</g>
<!-- statanalysis_hyp_testi_md_hp_estimators&#45;&gt;statanalysis_hyp_testi_md_hypothesis_testing -->
<g id="edge23" class="edge">
<title>statanalysis_hyp_testi_md_hp_estimators&#45;&gt;statanalysis_hyp_testi_md_hypothesis_testing</title><style>.edge>path:hover{stroke-width:8}</style>
<path fill="none" stroke="black" d="M1360.14,-691.52C1385.84,-684.5 1417.24,-675.93 1445.15,-668.3"/>
<polygon fill="#2b2bac" stroke="black" points="1446.13,-671.66 1454.86,-665.65 1444.29,-664.91 1446.13,-671.66"/>
</g>
<!-- statanalysis_hyp_testi_md_hypothesis_testing&#45;&gt;statanalysis_hyp_testi_md -->
<g id="edge24" class="edge">
<title>statanalysis_hyp_testi_md_hypothesis_testing&#45;&gt;statanalysis_hyp_testi_md</title><style>.edge>path:hover{stroke-width:8}</style>
<path fill="none" stroke="black" d="M1578.95,-666.48C1604.04,-673.86 1632.99,-682.38 1657.5,-689.59"/>
<polygon fill="#3535a1" stroke="black" points="1656.78,-693.02 1667.36,-692.49 1658.75,-686.31 1656.78,-693.02"/>
</g>
<!-- statanalysis_hyp_vali_md -->
<g id="node7" class="node">
<title>statanalysis_hyp_vali_md</title><style>.edge>path:hover{stroke-width:8}</style>
<ellipse fill="#0606ef" stroke="black" cx="1089.07" cy="-586.76" rx="55.72" ry="21.43"/>
<text text-anchor="middle" x="1089.07" y="-589.76" font-family="Helvetica,sans-Serif" font-size="10.00" fill="#ffffff">statanalysis.</text>
<text text-anchor="middle" x="1089.07" y="-578.76" font-family="Helvetica,sans-Serif" font-size="10.00" fill="#ffffff">hyp_vali_md</text>
</g>
<!-- statanalysis_hyp_vali_md&#45;&gt;statanalysis_conf_inte_md_ci_estimators -->
<g id="edge25" class="edge">
<title>statanalysis_hyp_vali_md&#45;&gt;statanalysis_conf_inte_md_ci_estimators</title><style>.edge>path:hover{stroke-width:8}</style>
<path fill="none" stroke="black" d="M1197.49,-534.76C1217.13,-524.95 1238.55,-513.79 1257.14,-503.96"/>
<polygon fill="#0606ef" stroke="black" points="1258.83,-507.03 1266.02,-499.26 1255.55,-500.85 1258.83,-507.03"/>
</g>
<!-- statanalysis_hyp_vali_md&#45;&gt;statanalysis_conf_inte_md_confidence_interval -->
<g id="edge26" class="edge">
<title>statanalysis_hyp_vali_md&#45;&gt;statanalysis_conf_inte_md_confidence_interval</title><style>.edge>path:hover{stroke-width:8}</style>
<path fill="none" stroke="black" d="M1124.66,-570.05C1145.51,-559.93 1172.58,-546.71 1196.49,-534.76"/>
<path fill="none" stroke="black" d="M1197.49,-534.76C1237.88,-514.57 1200.35,-470.42 1233.49,-439.76 1283.48,-393.51 1331.65,-444.14 1380.57,-396.76 1417.52,-360.97 1383.88,-326.48 1416.57,-286.76 1426.54,-274.65 1439.84,-264.69 1453.49,-256.7"/>
<polygon fill="#0606ef" stroke="black" points="1455.42,-259.64 1462.48,-251.74 1452.04,-253.51 1455.42,-259.64"/>
</g>
<!-- statanalysis_hyp_vali_md&#45;&gt;statanalysis_hyp_testi_md_hp_estimators -->
<g id="edge27" class="edge">
<title>statanalysis_hyp_vali_md&#45;&gt;statanalysis_hyp_testi_md_hp_estimators</title><style>.edge>path:hover{stroke-width:8}</style>
<path fill="none" stroke="black" d="M1121.04,-604.38C1134.05,-612.63 1148.84,-623.19 1160.49,-634.76 1180.44,-654.56 1170.28,-676.6 1196.49,-686.76"/>
<path fill="none" stroke="black" d="M1197.49,-686.76C1210,-691.61 1223.8,-695.23 1237.24,-697.93"/>
<polygon fill="#0606ef" stroke="black" points="1236.96,-701.43 1247.43,-699.81 1238.23,-694.55 1236.96,-701.43"/>
</g>
<!-- statanalysis_hyp_vali_md&#45;&gt;statanalysis_hyp_testi_md_hypothesis_testing -->
<g id="edge28" class="edge">
<title>statanalysis_hyp_vali_md&#45;&gt;statanalysis_hyp_testi_md_hypothesis_testing</title><style>.edge>path:hover{stroke-width:8}</style>
<path fill="none" stroke="black" d="M1116.6,-605.37C1142.22,-622.75 1179.55,-646.37 1196.49,-648.76"/>
<path fill="none" stroke="black" d="M1197.49,-648.76C1276.4,-659.87 1367.38,-658.5 1431.97,-655.16"/>
<polygon fill="#0606ef" stroke="black" points="1432.31,-658.65 1442.1,-654.61 1431.93,-651.66 1432.31,-658.65"/>
</g>
<!-- statanalysis_mdl_esti_md_hp_estimators_regression -->
<g id="node11" class="node">
<title>statanalysis_mdl_esti_md_hp_estimators_regression</title><style>.edge>path:hover{stroke-width:8}</style>
<ellipse fill="#2b2b82" stroke="black" cx="1517.69" cy="-78.76" rx="101.23" ry="28.98"/>
<text text-anchor="middle" x="1517.69" y="-87.26" font-family="Helvetica,sans-Serif" font-size="10.00" fill="#ffffff">statanalysis.</text>
<text text-anchor="middle" x="1517.69" y="-76.26" font-family="Helvetica,sans-Serif" font-size="10.00" fill="#ffffff">mdl_esti_md.</text>
<text text-anchor="middle" x="1517.69" y="-65.26" font-family="Helvetica,sans-Serif" font-size="10.00" fill="#ffffff">hp_estimators_regression</text>
</g>
<!-- statanalysis_hyp_vali_md&#45;&gt;statanalysis_mdl_esti_md_hp_estimators_regression -->
<g id="edge29" class="edge">
<title>statanalysis_hyp_vali_md&#45;&gt;statanalysis_mdl_esti_md_hp_estimators_regression</title><style>.edge>path:hover{stroke-width:8}</style>
<path fill="none" stroke="black" d="M1197.49,-382.76C1257.77,-327.07 1320.18,-414.32 1380.57,-358.76 1436.13,-307.64 1382.58,-260.16 1416.57,-192.76 1431.64,-162.88 1456.4,-134.59 1477.53,-113.66"/>
<polygon fill="#0606ef" stroke="black" points="1480.09,-116.05 1484.83,-106.58 1475.21,-111.03 1480.09,-116.05"/>
</g>
<!-- statanalysis_hyp_vali_md&#45;&gt;statanalysis_mdl_esti_md_model_estimator -->
<g id="edge30" class="edge">
<title>statanalysis_hyp_vali_md&#45;&gt;statanalysis_mdl_esti_md_model_estimator</title><style>.edge>path:hover{stroke-width:8}</style>
<path fill="none" stroke="black" d="M1197.49,-534.76C1240.56,-513.04 1257.9,-537.96 1306.03,-534.76"/>
</g>
<!-- statanalysis_mdl_esti_md_prediction_results -->
<g id="node15" class="node">
<title>statanalysis_mdl_esti_md_prediction_results</title><style>.edge>path:hover{stroke-width:8}</style>
<ellipse fill="#2b2bac" stroke="black" cx="1307.03" cy="-287.76" rx="73.58" ry="28.98"/>
<text text-anchor="middle" x="1307.03" y="-296.26" font-family="Helvetica,sans-Serif" font-size="10.00" fill="#ffffff">statanalysis.</text>
<text text-anchor="middle" x="1307.03" y="-285.26" font-family="Helvetica,sans-Serif" font-size="10.00" fill="#ffffff">mdl_esti_md.</text>
<text text-anchor="middle" x="1307.03" y="-274.26" font-family="Helvetica,sans-Serif" font-size="10.00" fill="#ffffff">prediction_results</text>
</g>
<!-- statanalysis_hyp_vali_md&#45;&gt;statanalysis_mdl_esti_md_prediction_results -->
<g id="edge31" class="edge">
<title>statanalysis_hyp_vali_md&#45;&gt;statanalysis_mdl_esti_md_prediction_results</title><style>.edge>path:hover{stroke-width:8}</style>
<path fill="none" stroke="black" d="M1113.1,-567.31C1128.56,-553.1 1148.27,-532.57 1160.49,-510.76 1189.38,-459.2 1153.09,-422.86 1196.49,-382.76"/>
<path fill="none" stroke="black" d="M1197.49,-382.76C1218.14,-363.68 1212.93,-349.92 1233.49,-330.76 1239.21,-325.43 1245.71,-320.44 1252.4,-315.9"/>
<polygon fill="#0606ef" stroke="black" points="1254.44,-318.75 1260.95,-310.39 1250.65,-312.87 1254.44,-318.75"/>
</g>
<!-- statanalysis_hyp_vali_md_constraints -->
<g id="node8" class="node">
<title>statanalysis_hyp_vali_md_constraints</title><style>.edge>path:hover{stroke-width:8}</style>
<ellipse fill="#2d2db4" stroke="black" cx="906" cy="-705.76" rx="57.97" ry="28.98"/>
<text text-anchor="middle" x="906" y="-714.26" font-family="Helvetica,sans-Serif" font-size="10.00" fill="#ffffff">statanalysis.</text>
<text text-anchor="middle" x="906" y="-703.26" font-family="Helvetica,sans-Serif" font-size="10.00" fill="#ffffff">hyp_vali_md.</text>
<text text-anchor="middle" x="906" y="-692.26" font-family="Helvetica,sans-Serif" font-size="10.00" fill="#ffffff">constraints</text>
</g>
<!-- statanalysis_hyp_vali_md_constraints&#45;&gt;statanalysis_hyp_vali_md -->
<g id="edge32" class="edge">
<title>statanalysis_hyp_vali_md_constraints&#45;&gt;statanalysis_hyp_vali_md</title><style>.edge>path:hover{stroke-width:8}</style>
<path fill="none" stroke="black" d="M945.98,-684.66C957.66,-677.98 970.36,-670.35 981.66,-662.76 998.48,-651.45 1001.27,-646.7 1017.66,-634.76 1028.6,-626.78 1040.72,-618.38 1051.78,-610.86"/>
<polygon fill="#2d2db4" stroke="black" points="1054.05,-613.55 1060.37,-605.06 1050.13,-607.75 1054.05,-613.55"/>
</g>
<!-- statanalysis_hyp_vali_md_constraints&#45;&gt;statanalysis_hyp_vali_md_hypothesis_validator -->
<g id="edge33" class="edge">
<title>statanalysis_hyp_vali_md_constraints&#45;&gt;statanalysis_hyp_vali_md_hypothesis_validator</title><style>.edge>path:hover{stroke-width:8}</style>
<path fill="none" stroke="black" d="M956.37,-720.55C1007.67,-736.15 1090.15,-761.87 1160.49,-786.76 1176.68,-792.49 1179.39,-799.26 1196.49,-800.76"/>
<path fill="none" stroke="black" d="M1197.49,-800.76C1467.93,-823.77 1541.08,-848.98 1808.18,-800.76"/>
</g>
<!-- statanalysis_hyp_vali_md_hypothesis_validator&#45;&gt;statanalysis_hyp_vali_md -->
<g id="edge34" class="edge">
<title>statanalysis_hyp_vali_md_hypothesis_validator&#45;&gt;statanalysis_hyp_vali_md</title><style>.edge>path:hover{stroke-width:8}</style>
<path fill="none" stroke="black" d="M1845.47,-557.02C1678.62,-563.59 1305.24,-578.29 1154.77,-584.21"/>
<polygon fill="#3838a8" stroke="black" points="1154.61,-580.72 1144.75,-584.61 1154.88,-587.71 1154.61,-580.72"/>
</g>
<!-- statanalysis_mdl_esti_md -->
<g id="node10" class="node">
<title>statanalysis_mdl_esti_md</title><style>.edge>path:hover{stroke-width:8}</style>
<ellipse fill="#4949ac" stroke="black" cx="2106.04" cy="-68.76" rx="56.64" ry="21.43"/>
<text text-anchor="middle" x="2106.04" y="-71.76" font-family="Helvetica,sans-Serif" font-size="10.00" fill="#ffffff">statanalysis.</text>
<text text-anchor="middle" x="2106.04" y="-60.76" font-family="Helvetica,sans-Serif" font-size="10.00" fill="#ffffff">mdl_esti_md</text>
</g>
<!-- statanalysis_mdl_esti_md_hp_estimators_regression&#45;&gt;statanalysis_mdl_esti_md_model_estimator -->
<g id="edge35" class="edge">
<title>statanalysis_mdl_esti_md_hp_estimators_regression&#45;&gt;statanalysis_mdl_esti_md_model_estimator</title><style>.edge>path:hover{stroke-width:8}</style>
<path fill="none" stroke="black" d="M1618.38,-76C1648.64,-75.91 1681.95,-76.55 1712.49,-78.76"/>
</g>
<!-- statanalysis_mdl_esti_md_log_reg_example -->
<g id="node12" class="node">
<title>statanalysis_mdl_esti_md_log_reg_example</title><style>.edge>path:hover{stroke-width:8}</style>
<ellipse fill="#4949ac" stroke="black" cx="1089.07" cy="-173.76" rx="71.34" ry="28.98"/>
<text text-anchor="middle" x="1089.07" y="-182.26" font-family="Helvetica,sans-Serif" font-size="10.00" fill="#ffffff">statanalysis.</text>
<text text-anchor="middle" x="1089.07" y="-171.26" font-family="Helvetica,sans-Serif" font-size="10.00" fill="#ffffff">mdl_esti_md.</text>
<text text-anchor="middle" x="1089.07" y="-160.26" font-family="Helvetica,sans-Serif" font-size="10.00" fill="#ffffff">log_reg_example</text>
</g>
<!-- statanalysis_mdl_esti_md_model_estimator&#45;&gt;statanalysis_mdl_esti_md -->
<g id="edge36" class="edge">
<title>statanalysis_mdl_esti_md_model_estimator&#45;&gt;statanalysis_mdl_esti_md</title><style>.edge>path:hover{stroke-width:8}</style>
<path fill="none" stroke="black" d="M1995.38,-86.96C2011.3,-84.32 2028.28,-81.5 2044,-78.89"/>
<polygon fill="#303091" stroke="black" points="2044.83,-82.3 2054.13,-77.21 2043.69,-75.4 2044.83,-82.3"/>
</g>
<!-- statanalysis_mdl_esti_md_prediction_metrics -->
<g id="node14" class="node">
<title>statanalysis_mdl_esti_md_prediction_metrics</title><style>.edge>path:hover{stroke-width:8}</style>
<ellipse fill="#2323c8" stroke="black" cx="906" cy="-306.76" rx="75.82" ry="28.98"/>
<text text-anchor="middle" x="906" y="-315.26" font-family="Helvetica,sans-Serif" font-size="10.00" fill="#ffffff">statanalysis.</text>
<text text-anchor="middle" x="906" y="-304.26" font-family="Helvetica,sans-Serif" font-size="10.00" fill="#ffffff">mdl_esti_md.</text>
<text text-anchor="middle" x="906" y="-293.26" font-family="Helvetica,sans-Serif" font-size="10.00" fill="#ffffff">prediction_metrics</text>
</g>
<!-- statanalysis_mdl_esti_md_prediction_metrics&#45;&gt;statanalysis_mdl_esti_md_hp_estimators_regression -->
<g id="edge37" class="edge">
<title>statanalysis_mdl_esti_md_prediction_metrics&#45;&gt;statanalysis_mdl_esti_md_hp_estimators_regression</title><style>.edge>path:hover{stroke-width:8}</style>
<path fill="none" stroke="black" d="M959.59,-286.23C1016.83,-265.49 1111.55,-235.8 1196.49,-230.76"/>
</g>
<!-- statanalysis_mdl_esti_md_prediction_metrics&#45;&gt;statanalysis_mdl_esti_md_log_reg_example -->
<g id="edge38" class="edge">
<title>statanalysis_mdl_esti_md_prediction_metrics&#45;&gt;statanalysis_mdl_esti_md_log_reg_example</title><style>.edge>path:hover{stroke-width:8}</style>
<path fill="none" stroke="black" d="M953.14,-283.99C963.06,-278.09 973.11,-271.25 981.66,-263.76 1001.44,-246.41 998.1,-234.36 1017.66,-216.76 1023.42,-211.57 1029.9,-206.66 1036.53,-202.13"/>
<polygon fill="#2323c8" stroke="black" points="1038.51,-205.01 1044.96,-196.61 1034.68,-199.15 1038.51,-205.01"/>
</g>
<!-- statanalysis_mdl_esti_md_prediction_metrics&#45;&gt;statanalysis_mdl_esti_md_prediction_results -->
<g id="edge39" class="edge">
<title>statanalysis_mdl_esti_md_prediction_metrics&#45;&gt;statanalysis_mdl_esti_md_prediction_results</title><style>.edge>path:hover{stroke-width:8}</style>
<path fill="none" stroke="black" d="M945.71,-331.52C982.04,-351.73 1038.12,-375.23 1088.07,-363.76"/>
<path fill="none" stroke="black" d="M1090.07,-363.76C1119.7,-356.96 1191.04,-331.14 1243.65,-311.47"/>
<polygon fill="#2323c8" stroke="black" points="1245.11,-314.66 1253.25,-307.88 1242.65,-308.11 1245.11,-314.66"/>
</g>
<!-- statanalysis_mdl_esti_md_prediction_results&#45;&gt;statanalysis_mdl_esti_md -->
<g id="edge40" class="edge">
<title>statanalysis_mdl_esti_md_prediction_results&#45;&gt;statanalysis_mdl_esti_md</title><style>.edge>path:hover{stroke-width:8}</style>
<path fill="none" stroke="black" d="M1353.11,-265.13C1362.73,-259.22 1372.43,-252.34 1380.57,-244.76 1401.13,-225.6 1394.4,-210.05 1416.57,-192.76 1492.28,-133.71 1543.09,-175.81 1618.8,-116.76 1640.97,-99.47 1630.08,-78.13 1654.8,-64.76 1783.08,4.61 1963.5,-29.25 2051.95,-52.72"/>
<polygon fill="#2b2bac" stroke="black" points="2051.19,-56.14 2061.75,-55.38 2053.02,-49.39 2051.19,-56.14"/>
</g>
<!-- statanalysis_mdl_esti_md_prediction_results&#45;&gt;statanalysis_mdl_esti_md_hp_estimators_regression -->
<g id="edge41" class="edge">
<title>statanalysis_mdl_esti_md_prediction_results&#45;&gt;statanalysis_mdl_esti_md_hp_estimators_regression</title><style>.edge>path:hover{stroke-width:8}</style>
<path fill="none" stroke="black" d="M1356.19,-266.2C1365.3,-260.32 1374.02,-253.2 1380.57,-244.76 1415.5,-199.77 1378.8,-164.4 1416.57,-121.76 1422.43,-115.14 1429.49,-109.51 1437.1,-104.72"/>
<polygon fill="#2b2bac" stroke="black" points="1439.33,-107.48 1446.27,-99.48 1435.85,-101.41 1439.33,-107.48"/>
</g>
<!-- statanalysis_utils_md -->
<g id="node16" class="node">
<title>statanalysis_utils_md</title><style>.edge>path:hover{stroke-width:8}</style>
<ellipse fill="#0505d1" stroke="black" cx="701.47" cy="-506.76" rx="55.72" ry="21.43"/>
<text text-anchor="middle" x="701.47" y="-509.76" font-family="Helvetica,sans-Serif" font-size="10.00" fill="#ffffff">statanalysis.</text>
<text text-anchor="middle" x="701.47" y="-498.76" font-family="Helvetica,sans-Serif" font-size="10.00" fill="#ffffff">utils_md</text>
</g>
<!-- statanalysis_utils_md&#45;&gt;statanalysis_conf_inte_md_ci_estimators -->
<g id="edge42" class="edge">
<title>statanalysis_utils_md&#45;&gt;statanalysis_conf_inte_md_ci_estimators</title><style>.edge>path:hover{stroke-width:8}</style>
<path fill="none" stroke="black" d="M1090.07,-496.76C1127.63,-468.01 1149.24,-494.72 1196.49,-496.76"/>
<path fill="none" stroke="black" d="M1197.49,-496.76C1212.48,-497.4 1228.46,-495.87 1243.43,-493.44"/>
<polygon fill="#0505d1" stroke="black" points="1244.38,-496.82 1253.61,-491.62 1243.15,-489.93 1244.38,-496.82"/>
</g>
<!-- statanalysis_utils_md&#45;&gt;statanalysis_conf_inte_md_confidence_interval -->
<g id="edge43" class="edge">
<title>statanalysis_utils_md&#45;&gt;statanalysis_conf_inte_md_confidence_interval</title><style>.edge>path:hover{stroke-width:8}</style>
<path fill="none" stroke="black" d="M1308.03,-344.76C1339.14,-332.8 1352,-342.92 1380.57,-325.76 1400.79,-313.62 1398.05,-301.36 1416.57,-286.76 1429.71,-276.39 1445.02,-266.8 1459.65,-258.58"/>
<polygon fill="#0505d1" stroke="black" points="1461.56,-261.53 1468.65,-253.65 1458.2,-255.39 1461.56,-261.53"/>
</g>
<!-- statanalysis_utils_md&#45;&gt;statanalysis_hyp_testi_md_hp_estimators -->
<g id="edge44" class="edge">
<title>statanalysis_utils_md&#45;&gt;statanalysis_hyp_testi_md_hp_estimators</title><style>.edge>path:hover{stroke-width:8}</style>
<path fill="none" stroke="black" d="M1090.07,-648.76C1140.3,-648.76 1149.67,-668.6 1196.49,-686.76"/>
</g>
<!-- statanalysis_utils_md&#45;&gt;statanalysis_hyp_testi_md_hypothesis_testing -->
<g id="edge45" class="edge">
<title>statanalysis_utils_md&#45;&gt;statanalysis_hyp_testi_md_hypothesis_testing</title><style>.edge>path:hover{stroke-width:8}</style>
<path fill="none" stroke="black" d="M1090.07,-648.76C1137.37,-648.76 1149.85,-640.89 1196.49,-648.76"/>
</g>
<!-- statanalysis_utils_md&#45;&gt;statanalysis_hyp_vali_md_constraints -->
<g id="edge46" class="edge">
<title>statanalysis_utils_md&#45;&gt;statanalysis_hyp_vali_md_constraints</title><style>.edge>path:hover{stroke-width:8}</style>
<path fill="none" stroke="black" d="M794.34,-648.76C807.95,-650.76 835.41,-664.87 859.56,-678.56"/>
<polygon fill="#0505d1" stroke="black" points="857.87,-681.62 868.28,-683.56 861.35,-675.55 857.87,-681.62"/>
</g>
<!-- statanalysis_utils_md&#45;&gt;statanalysis_hyp_vali_md_hypothesis_validator -->
<g id="edge47" class="edge">
<title>statanalysis_utils_md&#45;&gt;statanalysis_hyp_vali_md_hypothesis_validator</title><style>.edge>path:hover{stroke-width:8}</style>
<path fill="none" stroke="black" d="M907,-648.76C985.92,-633.03 1007.59,-648.76 1088.07,-648.76"/>
<path fill="none" stroke="black" d="M1090.07,-648.76C1137.78,-648.76 1149.13,-640.46 1196.49,-634.76 1383.14,-612.31 1434.57,-573.33 1618.8,-610.76 1691.36,-625.5 1723.07,-620.35 1772.18,-675.76 1810.53,-719.03 1751.43,-811.78 1808.18,-800.76"/>
<path fill="none" stroke="black" d="M1809.18,-800.76C1896.46,-781.89 1919.81,-658.09 1926.05,-593.24"/>
<polygon fill="#0505d1" stroke="black" points="1929.56,-593.25 1926.94,-582.98 1922.59,-592.64 1929.56,-593.25"/>
</g>
<!-- statanalysis_utils_md&#45;&gt;statanalysis_mdl_esti_md_hp_estimators_regression -->
<g id="edge48" class="edge">
<title>statanalysis_utils_md&#45;&gt;statanalysis_mdl_esti_md_hp_estimators_regression</title><style>.edge>path:hover{stroke-width:8}</style>
<path fill="none" stroke="black" d="M1197.49,-344.76C1237.21,-317.39 1261,-362.07 1306.03,-344.76"/>
<path fill="none" stroke="black" d="M1308.03,-344.76C1339.14,-332.8 1356.91,-349.23 1380.57,-325.76 1424.05,-282.63 1387.61,-246.72 1416.57,-192.76 1432.5,-163.07 1457.51,-134.59 1478.54,-113.52"/>
<polygon fill="#0505d1" stroke="black" points="1481.12,-115.89 1485.8,-106.38 1476.21,-110.9 1481.12,-115.89"/>
</g>
<!-- statanalysis_utils_md&#45;&gt;statanalysis_mdl_esti_md_model_estimator -->
<g id="edge49" class="edge">
<title>statanalysis_utils_md&#45;&gt;statanalysis_mdl_esti_md_model_estimator</title><style>.edge>path:hover{stroke-width:8}</style>
<path fill="none" stroke="black" d="M1197.49,-496.76C1215.57,-497.54 1216.63,-509.2 1233.49,-515.76 1264.55,-527.84 1272.78,-536.97 1306.03,-534.76"/>
<path fill="none" stroke="black" d="M1308.03,-534.76C1547.06,-518.88 1639.43,-460.16 1772.18,-260.76 1817.88,-192.12 1727.85,-97.37 1808.18,-78.76"/>
</g>
<!-- statanalysis_utils_md&#45;&gt;statanalysis_mdl_esti_md_prediction_metrics -->
<g id="edge50" class="edge">
<title>statanalysis_utils_md&#45;&gt;statanalysis_mdl_esti_md_prediction_metrics</title><style>.edge>path:hover{stroke-width:8}</style>
<path fill="none" stroke="black" d="M706.38,-528C714.67,-565.59 738.03,-640.64 793.34,-648.76"/>
<path fill="none" stroke="black" d="M794.34,-648.76C860.55,-658.47 793.43,-405.59 830.34,-349.76 834.36,-343.67 839.57,-338.34 845.35,-333.7"/>
<polygon fill="#0505d1" stroke="black" points="847.48,-336.48 853.55,-327.79 843.39,-330.8 847.48,-336.48"/>
</g>
<!-- statanalysis_utils_md&#45;&gt;statanalysis_mdl_esti_md_prediction_results -->
<g id="edge51" class="edge">
<title>statanalysis_utils_md&#45;&gt;statanalysis_mdl_esti_md_prediction_results</title><style>.edge>path:hover{stroke-width:8}</style>
<path fill="none" stroke="black" d="M794.34,-648.76C843,-655.9 856.76,-658.37 905,-648.76"/>
<path fill="none" stroke="black" d="M907,-648.76C910.22,-648.12 1085.47,-498.75 1088.07,-496.76"/>
<path fill="none" stroke="black" d="M1090.07,-496.76C1155.56,-446.64 1128.59,-391.56 1196.49,-344.76"/>
<path fill="none" stroke="black" d="M1197.49,-344.76C1213.54,-333.7 1231.98,-323.26 1249.07,-314.42"/>
<polygon fill="#0505d1" stroke="black" points="1251.07,-317.33 1258.39,-309.67 1247.89,-311.09 1251.07,-317.33"/>
</g>
<!-- statanalysis_utils_md_compute_ppf_and_p_value -->
<g id="node17" class="node">
<title>statanalysis_utils_md_compute_ppf_and_p_value</title><style>.edge>path:hover{stroke-width:8}</style>
<ellipse fill="#3838a8" stroke="black" cx="505.67" cy="-506.76" rx="103.89" ry="28.98"/>
<text text-anchor="middle" x="505.67" y="-515.26" font-family="Helvetica,sans-Serif" font-size="10.00" fill="#ffffff">statanalysis.</text>
<text text-anchor="middle" x="505.67" y="-504.26" font-family="Helvetica,sans-Serif" font-size="10.00" fill="#ffffff">utils_md.</text>
<text text-anchor="middle" x="505.67" y="-493.26" font-family="Helvetica,sans-Serif" font-size="10.00" fill="#ffffff">compute_ppf_and_p_value</text>
</g>
<!-- statanalysis_utils_md_compute_ppf_and_p_value&#45;&gt;statanalysis_utils_md -->
<g id="edge52" class="edge">
<title>statanalysis_utils_md_compute_ppf_and_p_value&#45;&gt;statanalysis_utils_md</title><style>.edge>path:hover{stroke-width:8}</style>
<path fill="none" stroke="black" d="M609.81,-506.76C618.46,-506.76 627.03,-506.76 635.27,-506.76"/>
<polygon fill="#3838a8" stroke="black" points="635.5,-510.26 645.5,-506.76 635.5,-503.26 635.5,-510.26"/>
</g>
<!-- statanalysis_utils_md_constants -->
<g id="node18" class="node">
<title>statanalysis_utils_md_constants</title><style>.edge>path:hover{stroke-width:8}</style>
<ellipse fill="#3b3bce" stroke="black" cx="309.86" cy="-449.76" rx="55.72" ry="28.98"/>
<text text-anchor="middle" x="309.86" y="-458.26" font-family="Helvetica,sans-Serif" font-size="10.00" fill="#ffffff">statanalysis.</text>
<text text-anchor="middle" x="309.86" y="-447.26" font-family="Helvetica,sans-Serif" font-size="10.00" fill="#ffffff">utils_md.</text>
<text text-anchor="middle" x="309.86" y="-436.26" font-family="Helvetica,sans-Serif" font-size="10.00" fill="#ffffff">constants</text>
</g>
<!-- statanalysis_utils_md_constants&#45;&gt;statanalysis_utils_md -->
<g id="edge53" class="edge">
<title>statanalysis_utils_md_constants&#45;&gt;statanalysis_utils_md</title><style>.edge>path:hover{stroke-width:8}</style>
<path fill="none" stroke="black" d="M365.62,-447.85C426.14,-446.98 526.11,-449.22 609.61,-468.76 625.86,-472.56 642.93,-478.99 657.83,-485.49"/>
<polygon fill="#3b3bce" stroke="black" points="656.73,-488.83 667.28,-489.74 659.6,-482.44 656.73,-488.83"/>
</g>
<!-- statanalysis_utils_md_constants&#45;&gt;statanalysis_utils_md_compute_ppf_and_p_value -->
<g id="edge54" class="edge">
<title>statanalysis_utils_md_constants&#45;&gt;statanalysis_utils_md_compute_ppf_and_p_value</title><style>.edge>path:hover{stroke-width:8}</style>
<path fill="none" stroke="black" d="M358.77,-463.85C378.39,-469.62 401.66,-476.46 423.78,-482.97"/>
<polygon fill="#3b3bce" stroke="black" points="422.93,-486.37 433.51,-485.83 424.9,-479.65 422.93,-486.37"/>
</g>
<!-- statanalysis_utils_md_estimate_std -->
<g id="node19" class="node">
<title>statanalysis_utils_md_estimate_std</title><style>.edge>path:hover{stroke-width:8}</style>
<ellipse fill="#0606ef" stroke="black" cx="505.67" cy="-344.76" rx="56.64" ry="28.98"/>
<text text-anchor="middle" x="505.67" y="-353.26" font-family="Helvetica,sans-Serif" font-size="10.00" fill="#ffffff">statanalysis.</text>
<text text-anchor="middle" x="505.67" y="-342.26" font-family="Helvetica,sans-Serif" font-size="10.00" fill="#ffffff">utils_md.</text>
<text text-anchor="middle" x="505.67" y="-331.26" font-family="Helvetica,sans-Serif" font-size="10.00" fill="#ffffff">estimate_std</text>
</g>
<!-- statanalysis_utils_md_estimate_std&#45;&gt;statanalysis_conf_inte_md_confidence_interval -->
<g id="edge55" class="edge">
<title>statanalysis_utils_md_estimate_std&#45;&gt;statanalysis_conf_inte_md_confidence_interval</title><style>.edge>path:hover{stroke-width:8}</style>
<path fill="none" stroke="black" d="M1308.03,-230.76C1347.41,-232.06 1391,-232.25 1428.1,-232.05"/>
<polygon fill="#0606ef" stroke="black" points="1428.41,-235.54 1438.39,-231.98 1428.37,-228.55 1428.41,-235.54"/>
</g>
<!-- statanalysis_utils_md_estimate_std&#45;&gt;statanalysis_hyp_testi_md_hypothesis_testing -->
<g id="edge56" class="edge">
<title>statanalysis_utils_md_estimate_std&#45;&gt;statanalysis_hyp_testi_md_hypothesis_testing</title><style>.edge>path:hover{stroke-width:8}</style>
<path fill="none" stroke="black" d="M1308.03,-230.76C1341.27,-233.24 1356.16,-227.06 1380.57,-249.76 1485.72,-347.54 1509.65,-529.79 1515.09,-609.61"/>
<polygon fill="#0606ef" stroke="black" points="1511.6,-609.96 1515.71,-619.73 1518.59,-609.53 1511.6,-609.96"/>
</g>
<!-- statanalysis_utils_md_estimate_std&#45;&gt;statanalysis_mdl_esti_md_hp_estimators_regression -->
<g id="edge57" class="edge">
<title>statanalysis_utils_md_estimate_std&#45;&gt;statanalysis_mdl_esti_md_hp_estimators_regression</title><style>.edge>path:hover{stroke-width:8}</style>
<path fill="none" stroke="black" d="M794.34,-334.76C810.82,-332.73 814.29,-340.49 830.34,-344.76 863.42,-353.56 870.78,-362.53 905,-363.76"/>
<path fill="none" stroke="black" d="M907,-363.76C1000.41,-367.12 1212.61,-227.68 1306.03,-230.76"/>
<path fill="none" stroke="black" d="M1308.03,-230.76C1350.32,-233.92 1352.69,-200.71 1380.57,-168.76 1400.02,-146.46 1393.26,-130.98 1416.57,-112.76 1421.51,-108.9 1426.9,-105.47 1432.55,-102.41"/>
<polygon fill="#0606ef" stroke="black" points="1434.21,-105.5 1441.61,-97.92 1431.1,-99.23 1434.21,-105.5"/>
</g>
<!-- statanalysis_utils_md_estimate_std&#45;&gt;statanalysis_mdl_esti_md_model_estimator -->
<g id="edge58" class="edge">
<title>statanalysis_utils_md_estimate_std&#45;&gt;statanalysis_mdl_esti_md_model_estimator</title><style>.edge>path:hover{stroke-width:8}</style>
<path fill="none" stroke="black" d="M562.38,-345.69C620.31,-345.98 713.51,-344.57 793.34,-334.76"/>
<path fill="none" stroke="black" d="M794.34,-334.76C827.35,-329.61 806.62,-292.29 830.34,-268.76 884.49,-215.03 924.73,-238.54 981.66,-187.76 1002.63,-169.05 993.57,-150.25 1017.66,-135.76 1156.83,-52.03 1241.39,-176.49 1380.57,-92.76 1404.66,-78.27 1391.67,-53.8 1416.57,-40.76 1496.18,0.96 1530.58,-23.55 1618.8,-40.76 1662.91,-49.36 1667.67,-75.51 1712.49,-78.76"/>
<path fill="none" stroke="black" d="M1714.49,-78.76C1756.05,-81.35 1768.07,-89.92 1808.18,-78.76"/>
</g>
<!-- statanalysis_utils_md_estimate_std&#45;&gt;statanalysis_mdl_esti_md_prediction_metrics -->
<g id="edge59" class="edge">
<title>statanalysis_utils_md_estimate_std&#45;&gt;statanalysis_mdl_esti_md_prediction_metrics</title><style>.edge>path:hover{stroke-width:8}</style>
<path fill="none" stroke="black" d="M794.34,-334.76C808.03,-333.08 822.45,-330.24 836.2,-327"/>
<polygon fill="#0606ef" stroke="black" points="837.2,-330.36 846.08,-324.58 835.53,-323.56 837.2,-330.36"/>
</g>
<!-- statanalysis_utils_md_estimate_std&#45;&gt;statanalysis_mdl_esti_md_prediction_results -->
<g id="edge60" class="edge">
<title>statanalysis_utils_md_estimate_std&#45;&gt;statanalysis_mdl_esti_md_prediction_results</title><style>.edge>path:hover{stroke-width:8}</style>
<path fill="none" stroke="black" d="M907,-363.76C987.42,-366.66 1008.42,-375.28 1088.07,-363.76"/>
</g>
<!-- statanalysis_utils_md_estimate_std&#45;&gt;statanalysis_utils_md -->
<g id="edge61" class="edge">
<title>statanalysis_utils_md_estimate_std&#45;&gt;statanalysis_utils_md</title><style>.edge>path:hover{stroke-width:8}</style>
<path fill="none" stroke="black" d="M536.1,-369.36C572.13,-399.48 632.87,-450.25 669.56,-480.92"/>
<polygon fill="#0606ef" stroke="black" points="667.54,-483.79 677.45,-487.52 672.03,-478.42 667.54,-483.79"/>
</g>
<!-- statanalysis_utils_md_preprocessing -->
<g id="node20" class="node">
<title>statanalysis_utils_md_preprocessing</title><style>.edge>path:hover{stroke-width:8}</style>
<ellipse fill="#4040c0" stroke="black" cx="505.67" cy="-620.76" rx="60.21" ry="28.98"/>
<text text-anchor="middle" x="505.67" y="-629.26" font-family="Helvetica,sans-Serif" font-size="10.00" fill="#ffffff">statanalysis.</text>
<text text-anchor="middle" x="505.67" y="-618.26" font-family="Helvetica,sans-Serif" font-size="10.00" fill="#ffffff">utils_md.</text>
<text text-anchor="middle" x="505.67" y="-607.26" font-family="Helvetica,sans-Serif" font-size="10.00" fill="#ffffff">preprocessing</text>
</g>
<!-- statanalysis_utils_md_preprocessing&#45;&gt;statanalysis_utils_md -->
<g id="edge62" class="edge">
<title>statanalysis_utils_md_preprocessing&#45;&gt;statanalysis_utils_md</title><style>.edge>path:hover{stroke-width:8}</style>
<path fill="none" stroke="black" d="M554.58,-603.84C572.37,-596.76 592.39,-587.84 609.61,-577.76 631.44,-564.99 653.85,-547.53 670.95,-533.12"/>
<polygon fill="#4040c0" stroke="black" points="673.57,-535.49 678.9,-526.33 669.02,-530.17 673.57,-535.49"/>
</g>
<!-- statanalysis_utils_md_refactoring -->
<g id="node21" class="node">
<title>statanalysis_utils_md_refactoring</title><style>.edge>path:hover{stroke-width:8}</style>
<ellipse fill="#3b3bce" stroke="black" cx="309.86" cy="-563.76" rx="55.72" ry="28.98"/>
<text text-anchor="middle" x="309.86" y="-572.26" font-family="Helvetica,sans-Serif" font-size="10.00" fill="#ffffff">statanalysis.</text>
<text text-anchor="middle" x="309.86" y="-561.26" font-family="Helvetica,sans-Serif" font-size="10.00" fill="#ffffff">utils_md.</text>
<text text-anchor="middle" x="309.86" y="-550.26" font-family="Helvetica,sans-Serif" font-size="10.00" fill="#ffffff">refactoring</text>
</g>
<!-- statanalysis_utils_md_refactoring&#45;&gt;statanalysis_utils_md -->
<g id="edge63" class="edge">
<title>statanalysis_utils_md_refactoring&#45;&gt;statanalysis_utils_md</title><style>.edge>path:hover{stroke-width:8}</style>
<path fill="none" stroke="black" d="M365.62,-565.67C426.14,-566.54 526.11,-564.29 609.61,-544.76 625.86,-540.96 642.93,-534.53 657.83,-528.03"/>
<polygon fill="#3b3bce" stroke="black" points="659.6,-531.07 667.28,-523.78 656.73,-524.69 659.6,-531.07"/>
</g>
<!-- statanalysis_utils_md_refactoring&#45;&gt;statanalysis_utils_md_compute_ppf_and_p_value -->
<g id="edge64" class="edge">
<title>statanalysis_utils_md_refactoring&#45;&gt;statanalysis_utils_md_compute_ppf_and_p_value</title><style>.edge>path:hover{stroke-width:8}</style>
<path fill="none" stroke="black" d="M358.77,-549.67C378.39,-543.9 401.66,-537.05 423.78,-530.55"/>
<polygon fill="#3b3bce" stroke="black" points="424.9,-533.87 433.51,-527.69 422.93,-527.15 424.9,-533.87"/>
</g>
<!-- numpy -->
<g id="node22" class="node">
<title>numpy</title><style>.edge>path:hover{stroke-width:8}</style>
<polygon fill="#e50505" stroke="black" points="54,-696.76 51,-700.76 30,-700.76 27,-696.76 0,-696.76 0,-660.76 54,-660.76 54,-696.76"/>
<text text-anchor="middle" x="27" y="-676.26" font-family="Helvetica,sans-Serif" font-size="10.00" fill="#ffffff">numpy</text>
</g>
<!-- numpy&#45;&gt;statanalysis_conf_inte_md_confidence_interval -->
<g id="edge2" class="edge">
<title>numpy&#45;&gt;statanalysis_conf_inte_md_confidence_interval</title><style>.edge>path:hover{stroke-width:8}</style>
<path fill="none" stroke="black" d="M1090.07,-40.76C1107.68,-31.52 1348.96,-148.08 1460.66,-203.02"/>
<polygon fill="#e50505" stroke="black" points="1459.25,-206.22 1469.77,-207.5 1462.34,-199.94 1459.25,-206.22"/>
</g>
<!-- numpy&#45;&gt;statanalysis_hyp_testi_md_hp_estimators -->
<g id="edge3" class="edge">
<title>numpy&#45;&gt;statanalysis_hyp_testi_md_hp_estimators</title><style>.edge>path:hover{stroke-width:8}</style>
<path fill="none" stroke="black" d="M794.34,-762.76C924.36,-742.2 956.45,-798.76 1088.07,-800.76"/>
<path fill="none" stroke="black" d="M1090.07,-800.76C1140.29,-800.46 1148.45,-777.41 1196.49,-762.76"/>
<path fill="none" stroke="black" d="M1197.49,-762.76C1219.46,-756.06 1242.19,-744.88 1261.14,-734.19"/>
<polygon fill="#e50505" stroke="black" points="1262.93,-737.2 1269.84,-729.16 1259.43,-731.13 1262.93,-737.2"/>
</g>
<!-- numpy&#45;&gt;statanalysis_hyp_testi_md_hypothesis_testing -->
<g id="edge4" class="edge">
<title>numpy&#45;&gt;statanalysis_hyp_testi_md_hypothesis_testing</title><style>.edge>path:hover{stroke-width:8}</style>
<path fill="none" stroke="black" d="M1197.49,-762.76C1275.74,-738.9 1303.9,-772.3 1380.57,-743.76 1417.65,-729.96 1454.11,-703.63 1479.95,-682.19"/>
<polygon fill="#e50505" stroke="black" points="1482.23,-684.84 1487.61,-675.71 1477.72,-679.49 1482.23,-684.84"/>
</g>
<!-- numpy&#45;&gt;statanalysis_hyp_vali_md_constraints -->
<g id="edge5" class="edge">
<title>numpy&#45;&gt;statanalysis_hyp_vali_md_constraints</title><style>.edge>path:hover{stroke-width:8}</style>
<path fill="none" stroke="black" d="M155,-724.76C430.32,-795.29 509.95,-784.3 793.34,-762.76"/>
<path fill="none" stroke="black" d="M794.34,-762.76C807.93,-760.61 835.38,-746.49 859.55,-732.84"/>
<polygon fill="#e50505" stroke="black" points="861.32,-735.86 868.27,-727.86 857.85,-729.78 861.32,-735.86"/>
</g>
<!-- numpy&#45;&gt;statanalysis_hyp_vali_md_hypothesis_validator -->
<g id="edge6" class="edge">
<title>numpy&#45;&gt;statanalysis_hyp_vali_md_hypothesis_validator</title><style>.edge>path:hover{stroke-width:8}</style>
<path fill="none" stroke="black" d="M1090.07,-800.76C1137.37,-800.48 1149.6,-794.62 1196.49,-800.76"/>
</g>
<!-- numpy&#45;&gt;statanalysis_mdl_esti_md_hp_estimators_regression -->
<g id="edge7" class="edge">
<title>numpy&#45;&gt;statanalysis_mdl_esti_md_hp_estimators_regression</title><style>.edge>path:hover{stroke-width:8}</style>
<path fill="none" stroke="black" d="M1308.03,-78.76C1341.75,-88.85 1379.93,-91.28 1414.33,-90.41"/>
<polygon fill="#e50505" stroke="black" points="1414.52,-93.9 1424.39,-90.06 1414.28,-86.91 1414.52,-93.9"/>
</g>
<!-- numpy&#45;&gt;statanalysis_mdl_esti_md_log_reg_example -->
<g id="edge8" class="edge">
<title>numpy&#45;&gt;statanalysis_mdl_esti_md_log_reg_example</title><style>.edge>path:hover{stroke-width:8}</style>
<path fill="none" stroke="black" d="M907,-173.76C939.96,-167.96 976.83,-166.98 1008.65,-167.82"/>
<polygon fill="#e50505" stroke="black" points="1008.69,-171.32 1018.8,-168.15 1008.92,-164.33 1008.69,-171.32"/>
</g>
<!-- numpy&#45;&gt;statanalysis_mdl_esti_md_model_estimator -->
<g id="edge9" class="edge">
<title>numpy&#45;&gt;statanalysis_mdl_esti_md_model_estimator</title><style>.edge>path:hover{stroke-width:8}</style>
<path fill="none" stroke="black" d="M54.16,-680.96C65.3,-681.34 78.38,-681.02 90,-678.76"/>
<path fill="none" stroke="black" d="M91,-678.76C129.2,-671.33 223.46,-392.87 254,-368.76 273.75,-353.17 285.16,-363.21 308.86,-354.76"/>
<path fill="none" stroke="black" d="M310.86,-354.76C363.05,-331.46 349.46,-286.88 401.72,-263.76 523.28,-209.98 569.67,-273.39 700.47,-249.76"/>
<path fill="none" stroke="black" d="M702.47,-249.76C764.54,-238.05 770.35,-207.53 830.34,-187.76 862.4,-177.19 871.75,-179.61 905,-173.76"/>
<path fill="none" stroke="black" d="M907,-173.76C1002.12,-143.39 996.15,-79.76 1088.07,-40.76"/>
<path fill="none" stroke="black" d="M1090.07,-40.76C1179.79,-2.69 1212.66,-50.83 1306.03,-78.76"/>
<path fill="none" stroke="black" d="M1308.03,-78.76C1363.87,-82.98 1362.54,-29.5 1416.57,-14.76 1503.28,8.9 1530.03,-0.66 1618.8,-14.76 1689.61,-26.01 1704.66,-40.64 1772.18,-64.76 1788.35,-70.53 1791.64,-83.36 1808.18,-78.76"/>
<path fill="none" stroke="black" d="M1809.18,-78.76C1827.03,-73.08 1846.95,-73.69 1865.32,-76.88"/>
<polygon fill="#e50505" stroke="black" points="1864.84,-80.36 1875.34,-78.9 1866.23,-73.49 1864.84,-80.36"/>
</g>
<!-- numpy&#45;&gt;statanalysis_mdl_esti_md_prediction_metrics -->
<g id="edge10" class="edge">
<title>numpy&#45;&gt;statanalysis_mdl_esti_md_prediction_metrics</title><style>.edge>path:hover{stroke-width:8}</style>
<path fill="none" stroke="black" d="M702.47,-249.76C754.67,-239.44 813.03,-259.32 853.64,-278.37"/>
<polygon fill="#e50505" stroke="black" points="852.27,-281.59 862.8,-282.79 855.32,-275.29 852.27,-281.59"/>
</g>
<!-- numpy&#45;&gt;statanalysis_mdl_esti_md_prediction_results -->
<g id="edge11" class="edge">
<title>numpy&#45;&gt;statanalysis_mdl_esti_md_prediction_results</title><style>.edge>path:hover{stroke-width:8}</style>
<path fill="none" stroke="black" d="M310.86,-354.76C350.78,-340.9 360.16,-375.14 401.72,-382.76 532.59,-406.74 567.43,-401.76 700.47,-401.76 700.47,-401.76 700.47,-401.76 794.34,-401.76 925.97,-401.76 957.79,-382.61 1088.07,-363.76"/>
</g>
<!-- numpy&#45;&gt;statanalysis_utils_md_estimate_std -->
<g id="edge12" class="edge">
<title>numpy&#45;&gt;statanalysis_utils_md_estimate_std</title><style>.edge>path:hover{stroke-width:8}</style>
<path fill="none" stroke="black" d="M310.86,-354.76C352.06,-340.46 401.14,-338.06 439.6,-339.19"/>
<polygon fill="#e50505" stroke="black" points="439.52,-342.69 449.65,-339.57 439.79,-335.69 439.52,-342.69"/>
</g>
<!-- numpy&#45;&gt;statanalysis_utils_md_preprocessing -->
<g id="edge13" class="edge">
<title>numpy&#45;&gt;statanalysis_utils_md_preprocessing</title><style>.edge>path:hover{stroke-width:8}</style>
<path fill="none" stroke="black" d="M91,-678.76C124.68,-672.21 118.72,-723.26 153,-724.76"/>
<path fill="none" stroke="black" d="M155,-724.76C169.8,-725.41 349.69,-669.57 445.49,-639.46"/>
<polygon fill="#e50505" stroke="black" points="446.57,-642.79 455.06,-636.45 444.47,-636.11 446.57,-642.79"/>
</g>
<!-- scipy -->
<g id="node23" class="node">
<title>scipy</title><style>.edge>path:hover{stroke-width:8}</style>
<polygon fill="#0bdf0b" stroke="black" points="181,-696.76 178,-700.76 157,-700.76 154,-696.76 127,-696.76 127,-660.76 181,-660.76 181,-696.76"/>
<text text-anchor="middle" x="154" y="-676.26" font-family="Helvetica,sans-Serif" font-size="10.00" fill="#000000">scipy</text>
</g>
<!-- numpy&#45;&gt;scipy -->
<g id="edge1" class="edge">
<title>numpy&#45;&gt;scipy</title><style>.edge>path:hover{stroke-width:8}</style>
<path fill="none" stroke="black" d="M91,-678.76C99.26,-677.15 108.26,-676.53 116.78,-676.43"/>
<polygon fill="#e50505" stroke="black" points="116.8,-679.93 126.84,-676.55 116.89,-672.93 116.8,-679.93"/>
</g>
<!-- scipy&#45;&gt;statanalysis_hyp_vali_md_constraints -->
<g id="edge14" class="edge">
<title>scipy&#45;&gt;statanalysis_hyp_vali_md_constraints</title><style>.edge>path:hover{stroke-width:8}</style>
<path fill="none" stroke="black" d="M181.11,-680.95C211.7,-683.31 263.92,-686.76 308.86,-686.76 308.86,-686.76 308.86,-686.76 702.47,-686.76 748.6,-686.76 800.39,-691.71 840.05,-696.55"/>
<polygon fill="#0bdf0b" stroke="black" points="839.76,-700.04 850.11,-697.81 840.63,-693.1 839.76,-700.04"/>
</g>
<!-- scipy&#45;&gt;statanalysis_mdl_esti_md_hp_estimators_regression -->
<g id="edge15" class="edge">
<title>scipy&#45;&gt;statanalysis_mdl_esti_md_hp_estimators_regression</title><style>.edge>path:hover{stroke-width:8}</style>
<path fill="none" stroke="black" d="M157.68,-660.62C163.41,-627.11 179.5,-554.6 217,-506.76"/>
<path fill="none" stroke="black" d="M218,-506.76C245.85,-471.22 222.16,-443.77 254,-411.76 291.52,-374.04 325.24,-403.28 365.72,-368.76 389.97,-348.08 375.11,-324.29 401.72,-306.76 534.67,-219.18 602.09,-299.04 757.34,-263.76 859.98,-240.43 897.6,-251.12 981.66,-187.76 1004.1,-170.84 992.76,-148.8 1017.66,-135.76 1073.89,-106.3 1108.25,-99.69 1160.49,-135.76 1197.65,-161.41 1151.55,-235.12 1196.49,-230.76"/>
<path fill="none" stroke="black" d="M1197.49,-230.76C1224.97,-227.71 1391.22,-123.8 1416.57,-112.76 1423.87,-109.58 1431.57,-106.5 1439.32,-103.58"/>
<polygon fill="#0bdf0b" stroke="black" points="1440.61,-106.84 1448.78,-100.11 1438.19,-100.27 1440.61,-106.84"/>
</g>
<!-- scipy&#45;&gt;statanalysis_utils_md_compute_ppf_and_p_value -->
<g id="edge16" class="edge">
<title>scipy&#45;&gt;statanalysis_utils_md_compute_ppf_and_p_value</title><style>.edge>path:hover{stroke-width:8}</style>
<path fill="none" stroke="black" d="M218,-506.76C229.35,-492.89 318.67,-494.63 394.64,-498.8"/>
<polygon fill="#0bdf0b" stroke="black" points="394.6,-502.3 404.78,-499.38 394.99,-495.31 394.6,-502.3"/>
</g>
</g>
</svg>
